PathFileType	4	(x/y/z)	S01_BK_Cal.trc
DataRate	CameraRate	NumFrames	NumMarkers	Units	OrigDataRate	OrigDataStartFrame	OrigNumFrames
240	240	10	51	mm	240	2101	2400
Frame#	Time	Sternum			R.Acromium			L.Acromium			Top.Head			R.ASIS			L.ASIS			R.PSIS			L.PSIS			R.Great.Tro			L.Great.Tro			R.Iliac.Crest			L.Iliac.Crest			V.Sacral			R.Thigh.Upper.Post			R.Thigh.Lower.Ant			R.Thigh.Lower.Post			R.Thigh.Upper.Ant			R.Knee.Lat			R.Knee.Med			R.Shank.Upper.Post			R.Shank.Lower.Ant			R.Shank.Lower.Post			R.Shank.Upper.Ant			R.Ankle.Lat			R.Ankle.Med			R.Heel.Upper			R.Heel.Med			R.Heel.Lat			R.Toe.Lat			R.Toe.Med			R.Toe.Tip			L.Thigh.Upper.Post			L.Thigh.Lower.Ant			L.Thigh.Lower.Post			L.Thigh.Upper.Ant			L.Knee.Lat			L.Knee.Med			L.Shank.Upper.Post			L.Shank.Lower.Ant			L.Shank.Lower.Post			L.Shank.Upper.Ant			L.Ankle.Lat			L.Ankle.Med			L.Heel.Upper			L.Heel.Med			L.Heel.Lat			L.Toe.Lat			L.Toe.Med			L.Toe.Tip			Cervical.Spine			Back			
		X1	Y1	Z1	X2	Y2	Z2	X3	Y3	Z3	X4	Y4	Z4	X5	Y5	Z5	X6	Y6	Z6	X7	Y7	Z7	X8	Y8	Z8	X9	Y9	Z9	X10	Y10	Z10	X11	Y11	Z11	X12	Y12	Z12	X13	Y13	Z13	X14	Y14	Z14	X15	Y15	Z15	X16	Y16	Z16	X17	Y17	Z17	X18	Y18	Z18	X19	Y19	Z19	X20	Y20	Z20	X21	Y21	Z21	X22	Y22	Z22	X23	Y23	Z23	X24	Y24	Z24	X25	Y25	Z25	X26	Y26	Z26	X27	Y27	Z27	X28	Y28	Z28	X29	Y29	Z29	X30	Y30	Z30	X31	Y31	Z31	X32	Y32	Z32	X33	Y33	Z33	X34	Y34	Z34	X35	Y35	Z35	X36	Y36	Z36	X37	Y37	Z37	X38	Y38	Z38	X39	Y39	Z39	X40	Y40	Z40	X41	Y41	Z41	X42	Y42	Z42	X43	Y43	Z43	X44	Y44	Z44	X45	Y45	Z45	X46	Y46	Z46	X47	Y47	Z47	X48	Y48	Z48	X49	Y49	Z49	X50	Y50	Z50	X51	Y51	Z51	

2101	8.75	717.62	1269.5	276.61	564.26	1509.4	457.45	532.02	1519.9	130.56	466.16	1816.3	300.22	691.56	1000.1	431.23	690.45	1001.1	162.03	453.56	1031.7	340.82	450.51	1029.3	236.87	617.74	945.99	511.81	584.8	946.63	83.506	597.99	1095.6	495.84	574.97	1081.8	91.634	441.43	993.04	287.13	652.28	642.31	514.96	731.61	579.39	497.73	667.27	554.46	500.99	720.1	668.91	509.97	698.71	491.02	499.78	706.51	482.77	359.43	596.19	363.4	530.17	618.44	262.81	490.22	565.11	299.74	523.08	647.47	329.39	505.58	481.48	112.45	498.13	511.15	105.81	404.29	405.87	80.137	444.28	416.75	47.608	416.84	413.52	51.838	481.42	601.5	35.136	539.29	634.01	39.98	414.93	696.91	52.066	470.79	596.38	659.35	83.899	687.82	600.98	66.207	619.6	571.34	92.013	655.96	691.07	58.789	678.26	493.25	73.491	716.78	489.4	208.86	591.48	383.51	50.16	619.19	277.45	69.462	566.48	309.59	50.004	645.23	349.7	63.31	472.75	112.58	79.028	503.66	117.47	173.81	399.55	81.94	123.71	408.81	53.239	155.11	407.32	57.11	93.274	610.29	37.969	45.143	634.59	45.772	167.45	697.13	56.22	117.65	461.57	1550.6	302.34	417.26	1229.1	315.24
2102	8.7542	717.62	1269.5	276.61	564.27	1509.4	457.46	532.01	1519.9	130.57	466.2	1816.3	300.24	691.58	1000.1	431.24	690.45	1001.1	162.03	453.57	1031.7	340.84	450.51	1029.3	236.89	617.76	945.99	511.81	584.79	946.63	83.519	598.01	1095.6	495.85	574.96	1081.8	91.648	441.44	993.03	287.15	652.29	642.31	514.96	731.63	579.39	497.73	667.29	554.46	500.99	720.11	668.9	509.97	698.72	491.02	499.77	706.52	482.77	359.42	596.2	363.4	530.17	618.45	262.8	490.22	565.12	299.74	523.07	647.48	329.39	505.58	481.48	112.45	498.13	511.15	105.81	404.29	405.87	80.139	444.28	416.75	47.611	416.84	413.52	51.84	481.42	601.5	35.136	539.29	634.01	39.98	414.93	696.91	52.065	470.79	596.38	659.35	83.903	687.81	600.98	66.206	619.6	571.34	92.014	655.95	691.07	58.793	678.26	493.25	73.491	716.78	489.4	208.86	591.48	383.51	50.161	619.19	277.45	69.459	566.48	309.59	50.005	645.23	349.7	63.308	472.75	112.58	79.029	503.66	117.47	173.81	399.55	81.942	123.71	408.81	53.239	155.11	407.32	57.111	93.275	610.29	37.969	45.143	634.59	45.772	167.45	697.13	56.22	117.65	461.58	1550.6	302.35	417.26	1229.1	315.25
2103	8.7583	717.62	1269.5	276.62	564.28	1509.4	457.48	532	1519.9	130.58	466.23	1816.3	300.26	691.59	1000.1	431.24	690.45	1001.1	162.03	453.58	1031.7	340.87	450.52	1029.3	236.91	617.79	945.98	511.82	584.79	946.63	83.532	598.03	1095.6	495.86	574.96	1081.8	91.662	441.44	993.03	287.17	652.31	642.31	514.96	731.64	579.39	497.72	667.3	554.45	500.99	720.13	668.9	509.97	698.73	491.01	499.77	706.53	482.77	359.42	596.21	363.39	530.17	618.45	262.8	490.21	565.12	299.74	523.07	647.48	329.38	505.57	481.48	112.45	498.13	511.15	105.81	404.29	405.87	80.14	444.28	416.75	47.615	416.84	413.52	51.841	481.42	601.5	35.137	539.29	634.01	39.98	414.93	696.91	52.064	470.79	596.38	659.35	83.908	687.81	600.98	66.206	619.6	571.34	92.016	655.95	691.08	58.798	678.25	493.25	73.49	716.78	489.41	208.86	591.47	383.51	50.162	619.18	277.46	69.457	566.47	309.59	50.007	645.23	349.71	63.305	472.75	112.58	79.029	503.66	117.47	173.81	399.56	81.944	123.71	408.81	53.239	155.11	407.32	57.112	93.276	610.29	37.969	45.143	634.59	45.774	167.45	697.13	56.219	117.65	461.59	1550.6	302.37	417.26	1229.1	315.26
2104	8.7625	717.61	1269.4	276.62	564.29	1509.4	457.49	531.99	1519.9	130.6	466.27	1816.3	300.27	691.61	1000.1	431.25	690.45	1001.1	162.04	453.58	1031.7	340.89	450.52	1029.3	236.93	617.81	945.98	511.83	584.79	946.63	83.545	598.05	1095.6	495.86	574.96	1081.8	91.676	441.45	993.03	287.19	652.32	642.3	514.96	731.65	579.38	497.72	667.31	554.45	500.99	720.15	668.89	509.97	698.74	491.01	499.76	706.53	482.77	359.41	596.22	363.39	530.17	618.46	262.8	490.21	565.13	299.73	523.07	647.49	329.38	505.57	481.48	112.45	498.13	511.16	105.81	404.29	405.87	80.141	444.28	416.75	47.618	416.84	413.52	51.843	481.42	601.5	35.138	539.29	634.01	39.98	414.93	696.91	52.063	470.78	596.38	659.36	83.913	687.81	600.99	66.207	619.59	571.34	92.018	655.95	691.08	58.802	678.25	493.25	73.49	716.79	489.41	208.85	591.47	383.51	50.163	619.18	277.46	69.454	566.47	309.6	50.008	645.22	349.71	63.303	472.75	112.59	79.03	503.66	117.47	173.81	399.56	81.946	123.71	408.81	53.239	155.11	407.32	57.113	93.277	610.29	37.968	45.143	634.59	45.775	167.45	697.13	56.219	117.65	461.6	1550.6	302.39	417.26	1229.1	315.27
2105	8.7667	717.61	1269.4	276.62	564.3	1509.4	457.5	531.98	1519.9	130.61	466.31	1816.3	300.29	691.62	1000.1	431.25	690.45	1001.2	162.04	453.59	1031.7	340.92	450.53	1029.3	236.95	617.83	945.98	511.84	584.78	946.64	83.56	598.07	1095.6	495.87	574.96	1081.8	91.69	441.46	993.02	287.22	652.34	642.3	514.96	731.67	579.38	497.71	667.33	554.45	500.98	720.16	668.89	509.97	698.75	491	499.75	706.54	482.77	359.41	596.23	363.39	530.16	618.46	262.79	490.2	565.14	299.73	523.06	647.5	329.38	505.56	481.48	112.45	498.13	511.16	105.81	404.29	405.87	80.141	444.29	416.75	47.621	416.84	413.52	51.844	481.42	601.5	35.139	539.29	634.01	39.98	414.93	696.91	52.063	470.78	596.38	659.36	83.918	687.81	600.99	66.208	619.59	571.35	92.02	655.95	691.08	58.808	678.25	493.26	73.489	716.79	489.41	208.85	591.47	383.52	50.164	619.18	277.47	69.452	566.46	309.6	50.01	645.22	349.71	63.302	472.75	112.59	79.031	503.66	117.47	173.81	399.56	81.948	123.71	408.81	53.24	155.11	407.32	57.113	93.278	610.29	37.967	45.143	634.59	45.776	167.45	697.13	56.219	117.65	461.61	1550.7	302.41	417.26	1229.1	315.28
2106	8.7708	717.61	1269.4	276.63	564.31	1509.4	457.52	531.97	1519.9	130.62	466.35	1816.3	300.3	691.64	1000.1	431.26	690.45	1001.2	162.05	453.6	1031.7	340.95	450.53	1029.3	236.97	617.85	945.97	511.85	584.78	946.64	83.574	598.08	1095.6	495.88	574.95	1081.8	91.703	441.47	993.02	287.24	652.35	642.3	514.96	731.68	579.38	497.71	667.34	554.44	500.98	720.18	668.88	509.97	698.77	491	499.74	706.54	482.77	359.4	596.24	363.38	530.16	618.47	262.79	490.19	565.14	299.73	523.06	647.5	329.37	505.55	481.48	112.46	498.13	511.16	105.8	404.29	405.87	80.141	444.29	416.75	47.624	416.84	413.52	51.844	481.42	601.5	35.14	539.28	634.01	39.979	414.93	696.91	52.062	470.78	596.38	659.37	83.923	687.8	601	66.21	619.59	571.35	92.022	655.95	691.09	58.813	678.24	493.26	73.489	716.79	489.41	208.85	591.46	383.52	50.166	619.17	277.47	69.451	566.46	309.6	50.012	645.21	349.72	63.3	472.75	112.59	79.032	503.66	117.47	173.81	399.56	81.95	123.71	408.81	53.24	155.11	407.32	57.114	93.278	610.29	37.967	45.144	634.59	45.777	167.45	697.13	56.218	117.65	461.61	1550.7	302.42	417.26	1229.1	315.3
2107	8.775	717.61	1269.4	276.63	564.31	1509.4	457.53	531.96	1519.9	130.64	466.39	1816.3	300.32	691.65	1000.1	431.26	690.45	1001.2	162.06	453.6	1031.7	340.97	450.54	1029.3	236.99	617.88	945.97	511.86	584.78	946.64	83.589	598.1	1095.6	495.9	574.95	1081.8	91.717	441.48	993.02	287.26	652.36	642.29	514.96	731.69	579.37	497.7	667.35	554.44	500.98	720.19	668.88	509.97	698.78	490.99	499.73	706.54	482.77	359.39	596.24	363.38	530.15	618.47	262.79	490.19	565.15	299.73	523.05	647.51	329.37	505.54	481.48	112.46	498.12	511.16	105.8	404.29	405.87	80.141	444.29	416.75	47.626	416.85	413.52	51.844	481.42	601.5	35.141	539.28	634.01	39.979	414.93	696.91	52.061	470.78	596.37	659.37	83.928	687.8	601	66.213	619.59	571.36	92.025	655.94	691.09	58.819	678.24	493.27	73.489	716.79	489.41	208.85	591.46	383.52	50.168	619.17	277.48	69.449	566.45	309.6	50.014	645.21	349.72	63.3	472.75	112.59	79.033	503.66	117.47	173.81	399.56	81.952	123.71	408.81	53.24	155.11	407.32	57.115	93.279	610.29	37.966	45.144	634.59	45.778	167.45	697.13	56.218	117.65	461.62	1550.7	302.44	417.25	1229.1	315.31
2108	8.7792	717.61	1269.4	276.63	564.32	1509.4	457.54	531.94	1519.9	130.65	466.43	1816.3	300.33	691.67	1000.1	431.27	690.45	1001.2	162.06	453.61	1031.7	341	450.54	1029.3	237.02	617.9	945.97	511.87	584.78	946.64	83.604	598.12	1095.6	495.91	574.94	1081.8	91.731	441.48	993.02	287.28	652.38	642.29	514.96	731.7	579.37	497.69	667.36	554.44	500.97	720.21	668.87	509.96	698.79	490.99	499.72	706.54	482.77	359.38	596.25	363.38	530.15	618.48	262.78	490.18	565.15	299.72	523.05	647.51	329.37	505.54	481.48	112.46	498.12	511.16	105.8	404.29	405.87	80.141	444.29	416.75	47.628	416.85	413.52	51.843	481.42	601.5	35.142	539.28	634.02	39.978	414.92	696.91	52.06	470.78	596.37	659.38	83.934	687.8	601.01	66.216	619.58	571.36	92.028	655.94	691.09	58.826	678.23	493.27	73.49	716.79	489.42	208.85	591.45	383.53	50.171	619.16	277.48	69.449	566.45	309.61	50.016	645.21	349.72	63.299	472.74	112.59	79.033	503.66	117.48	173.81	399.56	81.954	123.71	408.81	53.24	155.11	407.32	57.116	93.28	610.29	37.966	45.144	634.59	45.779	167.45	697.13	56.218	117.65	461.63	1550.7	302.46	417.25	1229.1	315.32
2109	8.7833	717.61	1269.4	276.64	564.33	1509.4	457.56	531.93	1519.9	130.67	466.47	1816.3	300.34	691.68	1000.1	431.28	690.45	1001.2	162.07	453.62	1031.7	341.02	450.55	1029.3	237.04	617.92	945.97	511.88	584.77	946.65	83.62	598.13	1095.6	495.92	574.94	1081.8	91.745	441.49	993.02	287.3	652.39	642.29	514.95	731.71	579.36	497.68	667.37	554.43	500.96	720.22	668.87	509.96	698.79	490.99	499.71	706.54	482.77	359.37	596.25	363.38	530.14	618.48	262.78	490.17	565.16	299.72	523.04	647.51	329.37	505.53	481.48	112.46	498.12	511.16	105.8	404.29	405.87	80.14	444.29	416.75	47.63	416.85	413.52	51.843	481.42	601.5	35.144	539.28	634.02	39.978	414.92	696.91	52.06	470.78	596.37	659.38	83.94	687.79	601.01	66.221	619.58	571.36	92.032	655.94	691.1	58.833	678.23	493.28	73.491	716.79	489.42	208.85	591.45	383.53	50.174	619.16	277.49	69.449	566.44	309.61	50.019	645.2	349.73	63.3	472.74	112.59	79.034	503.66	117.48	173.81	399.56	81.955	123.71	408.82	53.24	155.11	407.32	57.117	93.281	610.29	37.966	45.145	634.59	45.78	167.45	697.13	56.218	117.65	461.64	1550.7	302.48	417.25	1229.1	315.34
2110	8.7875	717.61	1269.4	276.64	564.34	1509.4	457.57	531.92	1519.9	130.69	466.51	1816.3	300.34	691.7	1000.1	431.29	690.45	1001.2	162.08	453.63	1031.7	341.05	450.55	1029.3	237.06	617.94	945.97	511.89	584.77	946.65	83.637	598.15	1095.6	495.94	574.93	1081.8	91.759	441.5	993.02	287.33	652.4	642.28	514.95	731.73	579.36	497.67	667.38	554.43	500.96	720.23	668.86	509.96	698.8	490.98	499.7	706.54	482.77	359.36	596.26	363.38	530.14	618.49	262.78	490.16	565.16	299.72	523.04	647.52	329.37	505.52	481.48	112.46	498.12	511.16	105.79	404.29	405.87	80.14	444.29	416.74	47.631	416.85	413.52	51.842	481.42	601.5	35.145	539.28	634.02	39.977	414.92	696.91	52.059	470.78	596.37	659.39	83.947	687.79	601.02	66.226	619.58	571.37	92.036	655.94	691.1	58.841	678.22	493.29	73.493	716.79	489.42	208.85	591.44	383.53	50.177	619.16	277.49	69.449	566.44	309.61	50.022	645.2	349.73	63.301	472.74	112.59	79.035	503.66	117.48	173.81	399.56	81.956	123.71	408.82	53.24	155.11	407.32	57.118	93.283	610.29	37.965	45.145	634.59	45.78	167.45	697.13	56.219	117.65	461.64	1550.7	302.5	417.24	1229.1	315.36
